{
  "accessors": [
    {
      "bufferView": 2,
      "componentType": 5126,
      "count": 7292,
      "max": [
        42.921939849853516,
        6.2381591796875,
        36.22438049316406
      ],
      "min": [
        -58.346771240234375,
        -0.2509114146232605,
        -35.637210845947266
      ],
      "type": "VEC3"
    },
    {
      "bufferView": 2,
      "byteOffset": 87504,
      "componentType": 5126,
      "count": 7292,
      "max": [
        0.9998354315757751,
        0.9998811483383179,
        1.0
      ],
      "min": [
        -0.9998340606689453,
        -0.9998998641967773,
        -1.0
      ],
      "type": "VEC3"
    },
    {
      "bufferView": 1,
      "componentType": 5126,
      "count": 7292,
      "max": [
        0.7824000120162964,
        0.9955000281333923
      ],
      "min": [
        0.03139999881386757,
        0.00419999985024333
      ],
      "type": "VEC2"
    },
    {
      "bufferView": 0,
      "componentType": 5125,
      "count": 37536,
      "type": "SCALAR"
    },
    {
      "bufferView": 2,
      "byteOffset": 175008,
      "componentType": 5126,
      "count": 6944,
      "max": [
        32.921321868896484,
        2.136526107788086,
        29.075000762939453
      ],
      "min": [
        -54.73012924194336,
        -0.25725120306015015,
        -15.660869598388672
      ],
      "type": "VEC3"
    },
    {
      "bufferView": 2,
      "byteOffset": 258336,
      "componentType": 5126,
      "count": 6944,
      "max": [
        0.9999993443489075,
        1.0,
        0.9999592304229736
      ],
      "min": [
        -0.9998910427093506,
        -1.0,
        -0.9999988079071045
      ],
      "type": "VEC3"
    },
    {
      "bufferView": 1,
      "byteOffset": 58336,
      "componentType": 5126,
      "count": 6944,
      "max": [
        0.9103000164031982,
        0.9972000122070313
      ],
      "min": [
        0.0731000080704689,
        0.0017999999690800905
      ],
      "type": "VEC2"
    },
    {
      "bufferView": 0,
      "byteOffset": 150144,
      "componentType": 5125,
      "count": 27168,
      "type": "SCALAR"
    }
  ],
  "asset": {
    "extras": {
      "author": "yankobe (https://sketchfab.com/yankobe.do)",
      "license": "CC-BY-4.0 (http://creativecommons.org/licenses/by/4.0/)",
      "source": "https://sketchfab.com/3d-models/cables-c86ea4a9b9d54e51a96e2164703e1501",
      "title": "Cables"
    },
    "generator": "Sketchfab-16.16.0",
    "version": "2.0"
  },
  "bufferViews": [
    {
      "buffer": 0,
      "byteLength": 258816,
      "name": "floatBufferViews",
      "target": 34963
    },
    {
      "buffer": 0,
      "byteLength": 113888,
      "byteOffset": 258816,
      "byteStride": 8,
      "name": "floatBufferViews",
      "target": 34962
    },
    {
      "buffer": 0,
      "byteLength": 341664,
      "byteOffset": 372704,
      "byteStride": 12,
      "name": "floatBufferViews",
      "target": 34962
    }
  ],
  "buffers": [
    {
      "byteLength": 714368,
      "uri": ".bin"
    }
  ],
  "images": [
    {
      "uri": "textures/Cables_baseColor.jpeg"
    },
    {
      "uri": "textures/Clips_baseColor.jpeg"
    }
  ],
  "materials": [
    {
      "doubleSided": true,
      "name": "Cables",
      "pbrMetallicRoughness": {
        "baseColorTexture": {
          "index": 0
        },
        "metallicFactor": 0.0,
        "roughnessFactor": 0.9577051494623774
      }
    },
    {
      "doubleSided": true,
      "name": "Clips",
      "pbrMetallicRoughness": {
        "baseColorTexture": {
          "index": 1
        },
        "metallicFactor": 0.0,
        "roughnessFactor": 0.9577051494623774
      }
    }
  ],
  "meshes": [
    {
      "name": "MRLN_Cables.Shape_Cables_0",
      "primitives": [
        {
          "attributes": {
            "NORMAL": 1,
            "POSITION": 0,
            "TEXCOORD_0": 2
          },
          "indices": 3,
          "material": 0,
          "mode": 4
        }
      ]
    },
    {
      "name": "MRLN_Cables.Shape_Clips_0",
      "primitives": [
        {
          "attributes": {
            "NORMAL": 5,
            "POSITION": 4,
            "TEXCOORD_0": 6
          },
          "indices": 7,
          "material": 1,
          "mode": 4
        }
      ]
    }
  ],
  "nodes": [
    {
      "children": [
        1
      ],
      "matrix": [
        1.0,
        0.0,
        0.0,
        0.0,
        0.0,
        2.220446049250313e-16,
        -1.0,
        0.0,
        0.0,
        1.0,
        2.220446049250313e-16,
        0.0,
        0.0,
        0.0,
        0.0,
        1.0
      ],
      "name": "Sketchfab_model"
    },
    {
      "children": [
        2
      ],
      "matrix": [
        0.009999999776482582,
        0.0,
        0.0,
        0.0,
        0.0,
        0.0,
        0.009999999776482582,
        0.0,
        0.0,
        -0.009999999776482582,
        0.0,
        0.0,
        0.0,
        0.0,
        0.0,
        1.0
      ],
      "name": "Cables.fbx"
    },
    {
      "children": [
        3
      ],
      "name": "RootNode"
    },
    {
      "children": [
        4
      ],
      "name": "MRLN_Cables"
    },
    {
      "children": [
        5,
        6
      ],
      "name": "MRLN_Cables.Shape"
    },
    {
      "mesh": 0,
      "name": "MRLN_Cables.Shape_Cables_0"
    },
    {
      "mesh": 1,
      "name": "MRLN_Cables.Shape_Clips_0"
    }
  ],
  "samplers": [
    {
      "magFilter": 9729,
      "minFilter": 9987,
      "wrapS": 10497,
      "wrapT": 10497
    }
  ],
  "scene": 0,
  "scenes": [
    {
      "name": "Sketchfab_Scene",
      "nodes": [
        0
      ]
    }
  ],
  "textures": [
    {
      "sampler": 0,
      "source": 0
    },
    {
      "sampler": 0,
      "source": 1
    }
  ]
}
