<svg width="35" height="35" viewBox="0 0 35 35" fill="none" xmlns="http://www.w3.org/2000/svg">
<circle cx="17.5" cy="17.5" r="16.9" stroke="#C2E7FF" stroke-width="1.2"/>
<path d="M24.8114 12.7779L21.3661 9.33256C20.9916 8.95803 20.4836 8.74762 19.9539 8.74762C19.4242 8.74762 18.9162 8.95803 18.5416 9.33256L8.66673 19.2075C8.2922 19.582 8.08179 20.09 8.08179 20.6197C8.08179 21.1494 8.2922 21.6574 8.66673 22.032L11.1683 24.5335C11.2304 24.5956 11.3041 24.6447 11.3852 24.6781C11.4664 24.7115 11.5533 24.7286 11.641 24.7283H24.0624C24.239 24.7283 24.4084 24.6581 24.5332 24.5333C24.6581 24.4084 24.7282 24.2391 24.7282 24.0625C24.7282 23.886 24.6581 23.7166 24.5332 23.5918C24.4084 23.4669 24.239 23.3968 24.0624 23.3968H17.0137L24.8114 15.6024C25.186 15.2278 25.3964 14.7198 25.3964 14.1901C25.3964 13.6604 25.186 13.1524 24.8114 12.7779ZM15.1313 23.3968H11.9165L9.60961 21.0899C9.48485 20.9651 9.41477 20.7958 9.41477 20.6193C9.41477 20.4428 9.48485 20.2735 9.60961 20.1487L14.076 15.6831L18.4609 20.068L15.1313 23.3968ZM23.8694 14.6586L19.4021 19.1267L15.0173 14.7419L19.4853 10.2763C19.5472 10.2144 19.6206 10.1653 19.7014 10.1318C19.7822 10.0983 19.8689 10.081 19.9564 10.081C20.0439 10.081 20.1305 10.0983 20.2113 10.1318C20.2921 10.1653 20.3656 10.2144 20.4274 10.2763L23.871 13.7199C23.9958 13.8448 24.0659 14.014 24.0659 14.1905C24.0659 14.367 23.9958 14.5363 23.871 14.6611L23.8694 14.6586Z" fill="#C2E7FF"/>
</svg>
