<svg width="40" height="40" viewBox="0 0 40 40" fill="none" xmlns="http://www.w3.org/2000/svg">
<rect x="1" y="1" width="38" height="38" rx="9" stroke="#C2E7FF" stroke-width="2"/>
<g clip-path="url(#clip0_47_913)">
<path d="M18.3703 25.4815H20.7407V18.3704H18.3703V25.4815ZM19.5555 16C19.8913 16 20.1729 15.8862 20.4005 15.6587C20.6281 15.4311 20.7414 15.1498 20.7407 14.8148C20.7399 14.4798 20.6261 14.1985 20.3993 13.971C20.1726 13.7434 19.8913 13.6296 19.5555 13.6296C19.2197 13.6296 18.9384 13.7434 18.7116 13.971C18.4848 14.1985 18.3711 14.4798 18.3703 14.8148C18.3695 15.1498 18.4833 15.4315 18.7116 15.6599C18.94 15.8882 19.2212 16.0016 19.5555 16ZM19.5555 31.4074C17.916 31.4074 16.3752 31.0961 14.9332 30.4735C13.4913 29.8509 12.2369 29.0066 11.1703 27.9407C10.1036 26.8749 9.25937 25.6205 8.63754 24.1778C8.01571 22.735 7.7044 21.1943 7.70361 19.5556C7.70282 17.9168 8.01413 16.3761 8.63754 14.9333C9.26095 13.4906 10.1052 12.2362 11.1703 11.1704C12.2354 10.1045 13.4897 9.26025 14.9332 8.63763C16.3768 8.01501 17.9175 7.7037 19.5555 7.7037C21.1934 7.7037 22.7341 8.01501 24.1777 8.63763C25.6212 9.26025 26.8756 10.1045 27.9407 11.1704C29.0057 12.2362 29.8504 13.4906 30.4746 14.9333C31.0988 16.3761 31.4097 17.9168 31.4073 19.5556C31.4049 21.1943 31.0936 22.735 30.4734 24.1778C29.8531 25.6205 29.0089 26.8749 27.9407 27.9407C26.8724 29.0066 25.6181 29.8513 24.1777 30.4747C22.7373 31.0981 21.1966 31.409 19.5555 31.4074ZM19.5555 29.037C22.2024 29.037 24.4444 28.1185 26.2814 26.2815C28.1184 24.4444 29.0369 22.2025 29.0369 19.5556C29.0369 16.9086 28.1184 14.6667 26.2814 12.8296C24.4444 10.9926 22.2024 10.0741 19.5555 10.0741C16.9086 10.0741 14.6666 10.9926 12.8295 12.8296C10.9925 14.6667 10.074 16.9086 10.074 19.5556C10.074 22.2025 10.9925 24.4444 12.8295 26.2815C14.6666 28.1185 16.9086 29.037 19.5555 29.037Z" fill="#C2E7FF"/>
</g>
<defs>
<clipPath id="clip0_47_913">
<rect width="28.4444" height="28.4444" fill="white" transform="translate(8 6.22221)"/>
</clipPath>
</defs>
</svg>
