<svg width="50" height="50" viewBox="0 0 50 50" fill="none" xmlns="http://www.w3.org/2000/svg">
<g clip-path="url(#clip0_8_737)">
<path fill-rule="evenodd" clip-rule="evenodd" d="M32.7229 23.5271C33.1135 23.9178 33.3329 24.4476 33.3329 25C33.3329 25.5524 33.1135 26.0822 32.7229 26.4729L20.9375 38.2583C20.7453 38.4573 20.5154 38.616 20.2613 38.7252C20.0071 38.8344 19.7337 38.8919 19.4571 38.8943C19.1805 38.8967 18.9061 38.844 18.6501 38.7392C18.3941 38.6345 18.1615 38.4798 17.9658 38.2842C17.7702 38.0886 17.6155 37.8559 17.5108 37.5999C17.406 37.3439 17.3533 37.0695 17.3557 36.7929C17.3581 36.5163 17.4156 36.2429 17.5248 35.9887C17.634 35.7346 17.7927 35.5047 17.9917 35.3125L28.3042 25L17.9917 14.6875C17.6122 14.2946 17.4022 13.7683 17.4069 13.2221C17.4117 12.6758 17.6308 12.1533 18.017 11.7671C18.4033 11.3808 18.9258 11.1617 19.4721 11.1569C20.0183 11.1522 20.5446 11.3622 20.9375 11.7417L32.7229 23.5271Z" fill="#00639B"/>
</g>
<defs>
<clipPath id="clip0_8_737">
<rect width="50" height="50" fill="white"/>
</clipPath>
</defs>
</svg>
