<svg width="312" height="244" viewBox="0 0 312 244" fill="none" xmlns="http://www.w3.org/2000/svg">
<rect width="312" height="244" fill="white"/>
<line x1="290" y1="106" x2="34" y2="106" stroke="#787878" stroke-width="2"/>
<line x1="34" y1="209" x2="34" y2="105" stroke="#787878" stroke-width="2"/>
<line x1="289" y1="209" x2="289" y2="105" stroke="#787878" stroke-width="2"/>
<line x1="122" y1="196" x2="122" y2="218.939" stroke="black" stroke-width="2" stroke-linecap="round"/>
<line x1="131.266" y1="201.873" x2="131.266" y2="212.342" stroke="black" stroke-width="2" stroke-linecap="round"/>
<line x1="140" y1="196" x2="140" y2="218.939" stroke="black" stroke-width="2" stroke-linecap="round"/>
<line x1="150" y1="202" x2="150" y2="212.469" stroke="black" stroke-width="2" stroke-linecap="round"/>
<line x1="131.949" y1="208.051" x2="139.051" y2="208.051" stroke="black" stroke-width="1.89752" stroke-linecap="round"/>
<path d="M132.409 186V174.364H139.432V175.614H133.818V179.545H139.068V180.795H133.818V184.75H139.523V186H132.409Z" fill="black"/>
<path d="M113.871 201.704V196.079H114.826V201.704H113.871ZM111.536 199.369V198.414H117.161V199.369H111.536Z" fill="black"/>
<path d="M158.449 198.088V199.182H153.994V198.088H158.449Z" fill="black"/>
<path d="M195.409 37V25.3636H196.818V31.1364H196.955L202.182 25.3636H204.023L199.136 30.6136L204.023 37H202.318L198.273 31.5909L196.818 33.2273V37H195.409Z" fill="black"/>
<rect x="19.9488" y="141.378" width="28.1025" height="23.1025" fill="white" stroke="black" stroke-width="1.89752"/>
<path d="M30.3794 158.729V147.093H34.3112C35.2203 147.093 35.9665 147.248 36.5499 147.559C37.1332 147.866 37.565 148.288 37.8453 148.826C38.1256 149.364 38.2658 149.976 38.2658 150.661C38.2658 151.347 38.1256 151.955 37.8453 152.485C37.565 153.015 37.1351 153.432 36.5556 153.735C35.976 154.034 35.2355 154.184 34.334 154.184H31.1522V152.911H34.2885C34.9097 152.911 35.4097 152.82 35.7885 152.639C36.1711 152.457 36.4476 152.199 36.6181 151.866C36.7923 151.529 36.8794 151.127 36.8794 150.661C36.8794 150.195 36.7923 149.788 36.6181 149.44C36.4438 149.091 36.1654 148.822 35.7828 148.633C35.4003 148.44 34.8946 148.343 34.2658 148.343H31.7885V158.729H30.3794ZM35.8567 153.502L38.7203 158.729H37.084L34.2658 153.502H35.8567Z" fill="black"/>
<circle cx="161" cy="107" r="14.0512" fill="white" stroke="black" stroke-width="1.89752"/>
<path d="M164.141 104.337C164.016 103.955 163.851 103.612 163.647 103.309C163.446 103.002 163.205 102.741 162.925 102.525C162.649 102.309 162.334 102.144 161.982 102.031C161.63 101.917 161.243 101.86 160.823 101.86C160.133 101.86 159.507 102.038 158.942 102.394C158.378 102.75 157.929 103.275 157.596 103.968C157.262 104.661 157.096 105.512 157.096 106.519C157.096 107.527 157.264 108.377 157.601 109.07C157.938 109.764 158.395 110.288 158.971 110.644C159.546 111 160.194 111.178 160.914 111.178C161.58 111.178 162.167 111.036 162.675 110.752C163.186 110.464 163.584 110.059 163.868 109.536C164.156 109.01 164.3 108.39 164.3 107.678L164.732 107.769H161.232V106.519H165.664V107.769C165.664 108.728 165.459 109.561 165.05 110.269C164.645 110.978 164.084 111.527 163.368 111.917C162.656 112.303 161.838 112.496 160.914 112.496C159.883 112.496 158.978 112.254 158.198 111.769C157.421 111.284 156.815 110.595 156.38 109.701C155.948 108.807 155.732 107.746 155.732 106.519C155.732 105.599 155.855 104.771 156.101 104.036C156.351 103.298 156.703 102.669 157.158 102.15C157.613 101.631 158.15 101.233 158.772 100.957C159.393 100.68 160.077 100.542 160.823 100.542C161.436 100.542 162.008 100.635 162.539 100.82C163.073 101.002 163.548 101.262 163.965 101.599C164.385 101.932 164.736 102.332 165.016 102.798C165.296 103.26 165.489 103.773 165.596 104.337H164.141Z" fill="black"/>
<path d="M121 208H33.6936" stroke="#787878" stroke-width="2"/>
<line x1="290" y1="208" x2="151" y2="207.995" stroke="#787878" stroke-width="2"/>
<line y1="-1" x2="143" y2="-1" transform="matrix(-1 0 -0.000452015 -1 231.019 41.1348)" stroke="#787878" stroke-width="2"/>
<line x1="89.0184" y1="42" x2="89.0184" y2="105" stroke="#787878" stroke-width="2"/>
<line x1="230.018" y1="42" x2="230.018" y2="105.455" stroke="#787878" stroke-width="2"/>
<path d="M205.602 38V37.4886L207.523 35.3864C207.748 35.1402 207.934 34.9261 208.08 34.7443C208.225 34.5606 208.333 34.3883 208.403 34.2273C208.475 34.0644 208.511 33.8939 208.511 33.7159C208.511 33.5114 208.462 33.3343 208.364 33.1847C208.267 33.035 208.134 32.9195 207.966 32.8381C207.797 32.7566 207.608 32.7159 207.398 32.7159C207.174 32.7159 206.979 32.7623 206.812 32.8551C206.648 32.946 206.52 33.0739 206.429 33.2386C206.34 33.4034 206.295 33.5966 206.295 33.8182H205.625C205.625 33.4773 205.704 33.178 205.861 32.9205C206.018 32.6629 206.232 32.4621 206.503 32.3182C206.776 32.1742 207.081 32.1023 207.42 32.1023C207.761 32.1023 208.063 32.1742 208.327 32.3182C208.59 32.4621 208.796 32.6562 208.946 32.9006C209.096 33.1449 209.17 33.4167 209.17 33.7159C209.17 33.9299 209.132 34.1392 209.054 34.3438C208.978 34.5464 208.846 34.7727 208.656 35.0227C208.469 35.2708 208.208 35.5739 207.875 35.9318L206.568 37.3295V37.375H209.273V38H205.602Z" fill="black"/>
<rect width="17" height="20" transform="translate(174 34)" fill="white"/>
<path d="M177.996 34.5801C177.996 34.5801 174.756 39.7069 175.015 44.2032C175.25 48.2927 177.996 53.4197 177.996 53.4197" stroke="black" stroke-width="1.89752" stroke-linecap="round" stroke-linejoin="round"/>
<circle cx="182.497" cy="44" r="2.5" fill="black"/>
<path d="M186.997 34.5801C186.997 34.5801 190.372 39.5713 190.114 44.0677C189.879 48.1571 186.997 53.4197 186.997 53.4197" stroke="black" stroke-width="1.89752" stroke-linecap="round" stroke-linejoin="round"/>
<path d="M229.409 202V190.364H230.818V196.136H230.955L236.182 190.364H238.023L233.136 195.614L238.023 202H236.318L232.273 196.591L230.818 198.227V202H229.409Z" fill="black"/>
<path d="M241.648 197.182V203H240.943V197.92H240.909L239.489 198.864V198.148L240.943 197.182H241.648Z" fill="black"/>
<rect width="17" height="20" transform="translate(208 197)" fill="white"/>
<path d="M211.996 197.58C211.996 197.58 208.756 202.707 209.015 207.203C209.25 211.293 211.996 216.42 211.996 216.42" stroke="black" stroke-width="1.89752" stroke-linecap="round" stroke-linejoin="round"/>
<circle cx="216.497" cy="207" r="2.5" fill="black"/>
<path d="M220.997 197.58C220.997 197.58 224.372 202.571 224.114 207.068C223.879 211.157 220.997 216.42 220.997 216.42" stroke="black" stroke-width="1.89752" stroke-linecap="round" stroke-linejoin="round"/>
<rect x="115.949" y="29.9488" width="28.1025" height="23.1025" fill="white" stroke="black" stroke-width="1.89752"/>
<path d="M132.773 38.2727C132.705 37.697 132.428 37.25 131.943 36.9318C131.458 36.6136 130.864 36.4545 130.159 36.4545C129.644 36.4545 129.193 36.5379 128.807 36.7045C128.424 36.8712 128.125 37.1004 127.909 37.392C127.697 37.6837 127.591 38.0152 127.591 38.3864C127.591 38.697 127.665 38.964 127.812 39.1875C127.964 39.4072 128.157 39.5909 128.392 39.7386C128.627 39.8826 128.873 40.0019 129.131 40.0966C129.388 40.1875 129.625 40.2614 129.841 40.3182L131.023 40.6364C131.326 40.7159 131.663 40.8258 132.034 40.9659C132.409 41.1061 132.767 41.2973 133.108 41.5398C133.453 41.7784 133.737 42.0852 133.96 42.4602C134.184 42.8352 134.295 43.2955 134.295 43.8409C134.295 44.4697 134.131 45.0379 133.801 45.5455C133.475 46.053 132.998 46.4564 132.369 46.7557C131.744 47.0549 130.985 47.2045 130.091 47.2045C129.258 47.2045 128.536 47.0701 127.926 46.8011C127.32 46.5322 126.843 46.1572 126.494 45.6761C126.15 45.1951 125.955 44.6364 125.909 44H127.364C127.402 44.4394 127.549 44.803 127.807 45.0909C128.068 45.375 128.398 45.5871 128.795 45.7273C129.197 45.8636 129.629 45.9318 130.091 45.9318C130.629 45.9318 131.112 45.8447 131.54 45.6705C131.968 45.4924 132.307 45.2462 132.557 44.9318C132.807 44.6136 132.932 44.2424 132.932 43.8182C132.932 43.4318 132.824 43.1174 132.608 42.875C132.392 42.6326 132.108 42.4356 131.756 42.2841C131.403 42.1326 131.023 42 130.614 41.8864L129.182 41.4773C128.273 41.2159 127.553 40.8428 127.023 40.358C126.492 39.8731 126.227 39.2386 126.227 38.4545C126.227 37.803 126.403 37.2348 126.756 36.75C127.112 36.2614 127.589 35.8826 128.188 35.6136C128.79 35.3409 129.462 35.2045 130.205 35.2045C130.955 35.2045 131.621 35.339 132.205 35.608C132.788 35.8731 133.25 36.2367 133.591 36.6989C133.936 37.161 134.117 37.6856 134.136 38.2727H132.773Z" fill="black"/>
</svg>
