<svg width="20" height="20" viewBox="0 0 20 20" fill="none" xmlns="http://www.w3.org/2000/svg">
<path d="M10 1.875C7.04625 1.875 5 3.9875 5 6.5625C5 7.7925 5.53 8.59375 6.23 9.4425L6.4975 9.75875C6.77625 10.0887 7.085 10.4537 7.33875 10.8187C7.69375 11.3325 8.01 11.9388 8.115 12.6813C8.14002 12.9225 8.07061 13.164 7.92134 13.3551C7.77207 13.5462 7.55456 13.672 7.31447 13.7062C7.07439 13.7403 6.83042 13.6801 6.6338 13.5381C6.43718 13.3962 6.3032 13.1836 6.26 12.945C6.21 12.5925 6.05625 12.2612 5.7975 11.8862C5.58549 11.5922 5.3594 11.3085 5.12 11.0363L4.785 10.6362C4.00125 9.6875 3.125 8.4575 3.125 6.5625C3.125 2.8875 6.07875 0 10 0C13.9213 0 16.875 2.8875 16.875 6.5625C16.875 8.4575 15.9987 9.6875 15.215 10.6362C15.0967 10.7796 14.985 10.9125 14.88 11.035C14.6213 11.3413 14.4012 11.6012 14.2037 11.8862C13.9437 12.2612 13.7913 12.5925 13.7413 12.945C13.6952 13.1813 13.5601 13.3908 13.3639 13.5303C13.1677 13.6698 12.9255 13.7286 12.6872 13.6946C12.4489 13.6605 12.2328 13.5363 12.0835 13.3475C11.9342 13.1587 11.8631 12.9197 11.885 12.68C11.99 11.9388 12.3062 11.3325 12.6612 10.8187C12.915 10.4537 13.2238 10.0887 13.5025 9.75875L13.7688 9.4425C14.47 8.59375 15 7.7925 15 6.5625C15 3.9875 12.9537 1.875 10 1.875ZM7.1875 15H12.8125C13.0611 15 13.2996 15.0988 13.4754 15.2746C13.6512 15.4504 13.75 15.6889 13.75 15.9375C13.75 16.1861 13.6512 16.4246 13.4754 16.6004C13.2996 16.7762 13.0611 16.875 12.8125 16.875H7.1875C6.93886 16.875 6.7004 16.7762 6.52459 16.6004C6.34877 16.4246 6.25 16.1861 6.25 15.9375C6.25 15.6889 6.34877 15.4504 6.52459 15.2746C6.7004 15.0988 6.93886 15 7.1875 15ZM7.5 19.0625C7.5 18.8139 7.59877 18.5754 7.77459 18.3996C7.9504 18.2238 8.18886 18.125 8.4375 18.125H11.5625C11.8111 18.125 12.0496 18.2238 12.2254 18.3996C12.4012 18.5754 12.5 18.8139 12.5 19.0625C12.5 19.3111 12.4012 19.5496 12.2254 19.7254C12.0496 19.9012 11.8111 20 11.5625 20H8.4375C8.18886 20 7.9504 19.9012 7.77459 19.7254C7.59877 19.5496 7.5 19.3111 7.5 19.0625Z" fill="white"/>
</svg>
