<svg width="35" height="35" viewBox="0 0 35 35" fill="none" xmlns="http://www.w3.org/2000/svg">
<g clip-path="url(#clip0_381_243)">
<path d="M18.4643 4.96436H8.82143C8.30994 4.96436 7.8194 5.16754 7.45772 5.52922C7.09605 5.8909 6.89286 6.38144 6.89286 6.89293V24.2501L4.96429 30.0358L12.6786 28.1072H28.1071C28.6186 28.1072 29.1092 27.904 29.4708 27.5423C29.8325 27.1807 30.0357 26.6901 30.0357 26.1786V16.5358" stroke="#003355" stroke-width="3.24" stroke-linecap="round" stroke-linejoin="round"/>
<path d="M20.1286 19.6928L14.3429 20.7343L15.3072 14.8714L24.4294 5.78783C24.6085 5.60684 24.8218 5.46316 25.0568 5.3651C25.2918 5.26704 25.544 5.21655 25.7986 5.21655C26.0533 5.21655 26.3055 5.26704 26.5405 5.3651C26.7755 5.46316 26.9888 5.60684 27.1679 5.78783L29.2122 7.83212C29.3927 8.01153 29.536 8.22488 29.6338 8.45988C29.7315 8.69487 29.7819 8.94688 29.7819 9.2014C29.7819 9.45593 29.7315 9.70794 29.6338 9.94293C29.536 10.1779 29.3927 10.3913 29.2122 10.5707L20.1286 19.6928Z" stroke="#003355" stroke-width="3.24" stroke-linecap="round" stroke-linejoin="round"/>
</g>
<defs>
<clipPath id="clip0_381_243">
<rect width="27" height="27" fill="white" transform="translate(4 4)"/>
</clipPath>
</defs>
</svg>
