<svg width="27" height="27" viewBox="0 0 27 27" fill="none" xmlns="http://www.w3.org/2000/svg">
<g clip-path="url(#clip0_8_731)">
<path d="M14.4643 0.964233H4.82144C4.30995 0.964233 3.81941 1.16742 3.45773 1.5291C3.09605 1.89078 2.89287 2.38132 2.89287 2.8928V20.2499L0.964294 26.0357L8.67858 24.1071H24.1072C24.6186 24.1071 25.1092 23.9039 25.4709 23.5422C25.8325 23.1805 26.0357 22.69 26.0357 22.1785V12.5357" stroke="#003355" stroke-width="3" stroke-linecap="round" stroke-linejoin="round"/>
<path d="M16.1287 15.6927L10.343 16.7341L11.3072 10.8713L20.4294 1.78771C20.6085 1.60672 20.8218 1.46303 21.0568 1.36498C21.2919 1.26692 21.544 1.21643 21.7987 1.21643C22.0533 1.21643 22.3055 1.26692 22.5405 1.36498C22.7755 1.46303 22.9888 1.60672 23.168 1.78771L25.2122 3.832C25.3928 4.01141 25.536 4.22476 25.6338 4.45975C25.7316 4.69475 25.7819 4.94676 25.7819 5.20128C25.7819 5.4558 25.7316 5.70781 25.6338 5.94281C25.536 6.17781 25.3928 6.39115 25.2122 6.57057L16.1287 15.6927Z" stroke="#003355" stroke-width="3" stroke-linecap="round" stroke-linejoin="round"/>
</g>
<defs>
<clipPath id="clip0_8_731">
<rect width="27" height="27" fill="white"/>
</clipPath>
</defs>
</svg>
