<svg width="30" height="30" viewBox="0 0 30 30" fill="none" xmlns="http://www.w3.org/2000/svg">
<g clip-path="url(#clip0_343_89)">
<path fill-rule="evenodd" clip-rule="evenodd" d="M9.15382 0C8.94351 0.000171404 8.7379 0.062235 8.56262 0.178455C8.38733 0.294676 8.25013 0.459913 8.16811 0.653571L3.34668 12.0321L3.3424 12.0429C3.20902 12.3675 3.15743 12.7199 3.19215 13.0692C3.22688 13.4184 3.34685 13.7538 3.54153 14.0458C3.73622 14.3378 3.99965 14.5776 4.30867 14.7439C4.6177 14.9103 4.96286 14.9983 5.31382 15H9.87597L5.98025 28.635C5.91569 28.8609 5.9272 29.1019 6.01301 29.3206C6.09882 29.5394 6.25416 29.7239 6.45513 29.8457C6.65609 29.9675 6.89152 30.0198 7.12516 29.9946C7.3588 29.9695 7.57768 29.8682 7.74811 29.7064L26.1553 12.2636L26.1617 12.2571C26.4674 11.9626 26.6787 11.5839 26.7688 11.1691C26.859 10.7543 26.8239 10.3221 26.668 9.92721C26.5121 9.53237 26.2425 9.19272 25.8933 8.95134C25.5441 8.70997 25.1311 8.57774 24.7067 8.57143H18.3895L21.8953 1.55143C21.9769 1.3884 22.0157 1.20723 22.0078 1.02505C21.9999 0.842876 21.9456 0.665728 21.8502 0.510379C21.7547 0.35503 21.6211 0.226621 21.4621 0.137308C21.3032 0.0479957 21.124 0.000734765 20.9417 0L9.15382 0Z" fill="#FFD233"/>
</g>
<defs>
<clipPath id="clip0_343_89">
<rect width="30" height="30" fill="white"/>
</clipPath>
</defs>
</svg>
