<svg width="35" height="35" viewBox="0 0 35 35" fill="none" xmlns="http://www.w3.org/2000/svg">
<path d="M20.2387 12.7604H5.83331C5.54323 12.7604 5.26503 12.6452 5.05991 12.44C4.8548 12.2349 4.73956 11.9567 4.73956 11.6666C4.73956 11.3766 4.8548 11.0984 5.05991 10.8932C5.26503 10.6881 5.54323 10.5729 5.83331 10.5729H20.2387C20.4652 9.93313 20.8843 9.37928 21.4385 8.98755C21.9927 8.59583 22.6547 8.3855 23.3333 8.3855C24.012 8.3855 24.6739 8.59583 25.2281 8.98755C25.7823 9.37928 26.2015 9.93313 26.4279 10.5729H29.1666C29.4567 10.5729 29.7349 10.6881 29.94 10.8932C30.1452 11.0984 30.2604 11.3766 30.2604 11.6666C30.2604 11.9567 30.1452 12.2349 29.94 12.44C29.7349 12.6452 29.4567 12.7604 29.1666 12.7604H26.4279C26.2015 13.4001 25.7823 13.954 25.2281 14.3457C24.6739 14.7374 24.012 14.9478 23.3333 14.9478C22.6547 14.9478 21.9927 14.7374 21.4385 14.3457C20.8843 13.954 20.4652 13.4001 20.2387 12.7604ZM29.1666 24.4271C29.4567 24.4271 29.7349 24.3118 29.94 24.1067C30.1452 23.9016 30.2604 23.6234 30.2604 23.3333C30.2604 23.0432 30.1452 22.765 29.94 22.5599C29.7349 22.3548 29.4567 22.2396 29.1666 22.2396H14.7612C14.5348 21.5998 14.1156 21.0459 13.5614 20.6542C13.0073 20.2625 12.3453 20.0522 11.6666 20.0522C10.988 20.0522 10.326 20.2625 9.77184 20.6542C9.21766 21.0459 8.7985 21.5998 8.57206 22.2396H5.83331C5.54323 22.2396 5.26503 22.3548 5.05991 22.5599C4.8548 22.765 4.73956 23.0432 4.73956 23.3333C4.73956 23.6234 4.8548 23.9016 5.05991 24.1067C5.26503 24.3118 5.54323 24.4271 5.83331 24.4271H8.57206C8.79783 25.0675 9.21673 25.6221 9.771 26.0144C10.3253 26.4067 10.9876 26.6174 11.6666 26.6174C12.3457 26.6174 13.008 26.4067 13.5623 26.0144C14.1166 25.6221 14.5355 25.0675 14.7612 24.4271H29.1666Z" fill="#003355"/>
</svg>
