<svg width="40" height="40" viewBox="0 0 40 40" fill="none" xmlns="http://www.w3.org/2000/svg">
<rect x="1" y="1" width="38" height="38" rx="9" stroke="#C2E7FF" stroke-width="2"/>
<path fill-rule="evenodd" clip-rule="evenodd" d="M16.2962 10.074H28.148C28.4624 10.074 28.7638 10.1989 28.9861 10.4212C29.2083 10.6434 29.3332 10.9449 29.3332 11.2592C29.3332 11.5736 29.2083 11.875 28.9861 12.0973C28.7638 12.3195 28.4624 12.4444 28.148 12.4444H16.2962C15.9818 12.4444 15.6804 12.3195 15.4581 12.0973C15.2359 11.875 15.111 11.5736 15.111 11.2592C15.111 10.9449 15.2359 10.6434 15.4581 10.4212C15.6804 10.1989 15.9818 10.074 16.2962 10.074ZM16.2962 18.3703H28.148C28.4624 18.3703 28.7638 18.4952 28.9861 18.7175C29.2083 18.9397 29.3332 19.2412 29.3332 19.5555C29.3332 19.8699 29.2083 20.1713 28.9861 20.3936C28.7638 20.6158 28.4624 20.7407 28.148 20.7407H16.2962C15.9818 20.7407 15.6804 20.6158 15.4581 20.3936C15.2359 20.1713 15.111 19.8699 15.111 19.5555C15.111 19.2412 15.2359 18.9397 15.4581 18.7175C15.6804 18.4952 15.9818 18.3703 16.2962 18.3703ZM16.2962 26.6666H28.148C28.4624 26.6666 28.7638 26.7915 28.9861 27.0138C29.2083 27.236 29.3332 27.5375 29.3332 27.8518C29.3332 28.1661 29.2083 28.4676 28.9861 28.6899C28.7638 28.9121 28.4624 29.037 28.148 29.037H16.2962C15.9818 29.037 15.6804 28.9121 15.4581 28.6899C15.2359 28.4676 15.111 28.1661 15.111 27.8518C15.111 27.5375 15.2359 27.236 15.4581 27.0138C15.6804 26.7915 15.9818 26.6666 16.2962 26.6666ZM9.77765 10.074C9.62049 10.074 9.46976 10.0116 9.35863 9.90047C9.24749 9.78934 9.18506 9.63861 9.18506 9.48145C9.18506 9.32428 9.24749 9.17355 9.35863 9.06242C9.46976 8.95129 9.62049 8.88885 9.77765 8.88885H10.9628C11.2947 8.88885 11.5554 9.1496 11.5554 9.48145V13.037C11.5554 13.1942 11.493 13.3449 11.3819 13.456C11.2707 13.5672 11.12 13.6296 10.9628 13.6296C10.8057 13.6296 10.6549 13.5672 10.5438 13.456C10.4327 13.3449 10.3702 13.1942 10.3702 13.037V10.0918L9.77765 10.074ZM9.77765 17.1852H12.148C12.4799 17.1852 12.7406 17.4459 12.7406 17.7777V18.3703L10.7258 20.7407H12.148C12.4799 20.7407 12.7406 21.0014 12.7406 21.3333C12.7406 21.6651 12.4751 21.9259 12.148 21.9259H9.77765C9.4458 21.9259 9.18506 21.6651 9.18506 21.3333V20.7407L11.1999 18.3703H9.77765C9.4458 18.3703 9.18506 18.1096 9.18506 17.7777C9.18506 17.4459 9.42091 17.1852 9.77765 17.1852ZM12.148 30.2222H9.77765C9.62049 30.2222 9.46976 30.1598 9.35863 30.0486C9.24749 29.9375 9.18506 29.7868 9.18506 29.6296C9.18506 29.4724 9.24749 29.3217 9.35863 29.2106C9.46976 29.0994 9.62049 29.037 9.77765 29.037H11.5554V28.4444H9.77765C9.62049 28.4444 9.46976 28.382 9.35863 28.2708C9.24749 28.1597 9.18506 28.009 9.18506 27.8518C9.18506 27.6947 9.24749 27.5439 9.35863 27.4328C9.46976 27.3217 9.62049 27.2592 9.77765 27.2592H11.5554V26.6666H9.77765C9.62049 26.6666 9.46976 26.6042 9.35863 26.4931C9.24749 26.3819 9.18506 26.2312 9.18506 26.074C9.18506 25.9169 9.24749 25.7661 9.35863 25.655C9.46976 25.5439 9.62049 25.4814 9.77765 25.4814H12.148C12.3052 25.4814 12.4559 25.5439 12.567 25.655C12.6782 25.7661 12.7406 25.9169 12.7406 26.074V29.6296C12.7406 29.7868 12.6782 29.9375 12.567 30.0486C12.4559 30.1598 12.3052 30.2222 12.148 30.2222Z" fill="#C2E7FF"/>
</svg>
