<svg width="35" height="35" viewBox="0 0 35 35" fill="none" xmlns="http://www.w3.org/2000/svg">
<path fill-rule="evenodd" clip-rule="evenodd" d="M12.75 6.45833H27.3333C27.7201 6.45833 28.091 6.61198 28.3645 6.88547C28.638 7.15896 28.7917 7.52989 28.7917 7.91667C28.7917 8.30344 28.638 8.67437 28.3645 8.94786C28.091 9.22135 27.7201 9.375 27.3333 9.375H12.75C12.3632 9.375 11.9923 9.22135 11.7188 8.94786C11.4453 8.67437 11.2917 8.30344 11.2917 7.91667C11.2917 7.52989 11.4453 7.15896 11.7188 6.88547C11.9923 6.61198 12.3632 6.45833 12.75 6.45833ZM12.75 16.6667H27.3333C27.7201 16.6667 28.091 16.8203 28.3645 17.0938C28.638 17.3673 28.7917 17.7382 28.7917 18.125C28.7917 18.5118 28.638 18.8827 28.3645 19.1562C28.091 19.4297 27.7201 19.5833 27.3333 19.5833H12.75C12.3632 19.5833 11.9923 19.4297 11.7188 19.1562C11.4453 18.8827 11.2917 18.5118 11.2917 18.125C11.2917 17.7382 11.4453 17.3673 11.7188 17.0938C11.9923 16.8203 12.3632 16.6667 12.75 16.6667ZM12.75 26.875H27.3333C27.7201 26.875 28.091 27.0286 28.3645 27.3021C28.638 27.5756 28.7917 27.9466 28.7917 28.3333C28.7917 28.7201 28.638 29.091 28.3645 29.3645C28.091 29.638 27.7201 29.7917 27.3333 29.7917H12.75C12.3632 29.7917 11.9923 29.638 11.7188 29.3645C11.4453 29.091 11.2917 28.7201 11.2917 28.3333C11.2917 27.9466 11.4453 27.5756 11.7188 27.3021C11.9923 27.0286 12.3632 26.875 12.75 26.875ZM4.72917 6.45833C4.53578 6.45833 4.35031 6.38151 4.21357 6.24477C4.07682 6.10802 4 5.92255 4 5.72917C4 5.53578 4.07682 5.35031 4.21357 5.21357C4.35031 5.07682 4.53578 5 4.72917 5H6.1875C6.59583 5 6.91667 5.32083 6.91667 5.72917V10.1042C6.91667 10.2976 6.83984 10.483 6.7031 10.6198C6.56635 10.7565 6.38089 10.8333 6.1875 10.8333C5.99411 10.8333 5.80865 10.7565 5.6719 10.6198C5.53516 10.483 5.45833 10.2976 5.45833 10.1042V6.48021L4.72917 6.45833ZM4.72917 15.2083H7.64583C8.05417 15.2083 8.375 15.5292 8.375 15.9375V16.6667L5.89583 19.5833H7.64583C8.05417 19.5833 8.375 19.9042 8.375 20.3125C8.375 20.7208 8.04833 21.0417 7.64583 21.0417H4.72917C4.32083 21.0417 4 20.7208 4 20.3125V19.5833L6.47917 16.6667H4.72917C4.32083 16.6667 4 16.3458 4 15.9375C4 15.5292 4.29021 15.2083 4.72917 15.2083ZM7.64583 31.25H4.72917C4.53578 31.25 4.35031 31.1732 4.21357 31.0364C4.07682 30.8997 4 30.7142 4 30.5208C4 30.3274 4.07682 30.142 4.21357 30.0052C4.35031 29.8685 4.53578 29.7917 4.72917 29.7917H6.91667V29.0625H4.72917C4.53578 29.0625 4.35031 28.9857 4.21357 28.8489C4.07682 28.7122 4 28.5267 4 28.3333C4 28.1399 4.07682 27.9545 4.21357 27.8177C4.35031 27.681 4.53578 27.6042 4.72917 27.6042H6.91667V26.875H4.72917C4.53578 26.875 4.35031 26.7982 4.21357 26.6614C4.07682 26.5247 4 26.3392 4 26.1458C4 25.9524 4.07682 25.767 4.21357 25.6302C4.35031 25.4935 4.53578 25.4167 4.72917 25.4167H7.64583C7.83922 25.4167 8.02469 25.4935 8.16143 25.6302C8.29818 25.767 8.375 25.9524 8.375 26.1458V30.5208C8.375 30.7142 8.29818 30.8997 8.16143 31.0364C8.02469 31.1732 7.83922 31.25 7.64583 31.25Z" fill="#003355"/>
</svg>
