<svg width="40" height="40" viewBox="0 0 40 40" fill="none" xmlns="http://www.w3.org/2000/svg">
<rect x="1" y="1" width="38" height="38" rx="9" stroke="#C2E7FF" stroke-width="2"/>
<path d="M9.55542 17.3333H29.5554M17.3332 9.55554V29.5555M9.55542 11.7778C9.55542 11.1884 9.78955 10.6232 10.2063 10.2064C10.623 9.78967 11.1883 9.55554 11.7776 9.55554H27.3332C27.9226 9.55554 28.4878 9.78967 28.9045 10.2064C29.3213 10.6232 29.5554 11.1884 29.5554 11.7778V27.3333C29.5554 27.9227 29.3213 28.4879 28.9045 28.9047C28.4878 29.3214 27.9226 29.5555 27.3332 29.5555H11.7776C11.1883 29.5555 10.623 29.3214 10.2063 28.9047C9.78955 28.4879 9.55542 27.9227 9.55542 27.3333V11.7778Z" stroke="#C2E7FF" stroke-width="3" stroke-linecap="round" stroke-linejoin="round"/>
</svg>
