{
    "asset" : {
        "generator" : "Khronos glTF Blender I/O v3.4.50",
        "version" : "2.0"
    },
    "scene" : 0,
    "scenes" : [
        {
            "name" : "Scene",
            "nodes" : [
                4
            ]
        }
    ],
    "nodes" : [
        {
            "mesh" : 0,
            "name" : "Cube.010_Material.010_0",
            "translation" : [
                -6.103515625e-05,
                0,
                -0.000518798828125
            ]
        },
        {
            "children" : [
                0
            ],
            "name" : "Cube.010",
            "rotation" : [
                -0.3757219910621643,
                0,
                0,
                0.9267324209213257
            ],
            "scale" : [
                1.4630311727523804,
                77.05155944824219,
                0.5143471956253052
            ],
            "translation" : [
                793.9343872070312,
                86.77268981933594,
                2514.99853515625
            ]
        },
        {
            "children" : [
                1
            ],
            "name" : "RootNode"
        },
        {
            "children" : [
                2
            ],
            "name" : "324817827f1f445b95e4d335f612114f.fbx",
            "rotation" : [
                0.70710688829422,
                0,
                0,
                0.7071066498756409
            ],
            "scale" : [
                0.009999999776482582,
                0.009999999776482582,
                0.009999999776482582
            ]
        },
        {
            "children" : [
                3
            ],
            "name" : "Sketchfab_model",
            "rotation" : [
                -0.70710688829422,
                0,
                0,
                0.7071066498756409
            ]
        }
    ],
    "materials" : [
        {
            "doubleSided" : true,
            "name" : "Material.035",
            "pbrMetallicRoughness" : {
                "baseColorFactor" : [
                    0.8000069856643677,
                    0.01510199997574091,
                    0.005959069821983576,
                    1
                ],
                "metallicFactor" : 0,
                "roughnessFactor" : 0.959457278251648
            }
        }
    ],
    "meshes" : [
        {
            "name" : "Cube.010_Material.010_0",
            "primitives" : [
                {
                    "attributes" : {
                        "POSITION" : 0,
                        "TEXCOORD_0" : 1,
                        "NORMAL" : 2
                    },
                    "indices" : 3,
                    "material" : 0
                }
            ]
        }
    ],
    "accessors" : [
        {
            "bufferView" : 0,
            "componentType" : 5126,
            "count" : 48,
            "max" : [
                1,
                2,
                1
            ],
            "min" : [
                -1,
                0,
                -16.635496139526367
            ],
            "type" : "VEC3"
        },
        {
            "bufferView" : 1,
            "componentType" : 5126,
            "count" : 48,
            "type" : "VEC2"
        },
        {
            "bufferView" : 2,
            "componentType" : 5126,
            "count" : 48,
            "type" : "VEC3"
        },
        {
            "bufferView" : 3,
            "componentType" : 5123,
            "count" : 60,
            "type" : "SCALAR"
        }
    ],
    "bufferViews" : [
        {
            "buffer" : 0,
            "byteLength" : 576,
            "byteOffset" : 0,
            "target" : 34962
        },
        {
            "buffer" : 0,
            "byteLength" : 384,
            "byteOffset" : 576,
            "target" : 34962
        },
        {
            "buffer" : 0,
            "byteLength" : 576,
            "byteOffset" : 960,
            "target" : 34962
        },
        {
            "buffer" : 0,
            "byteLength" : 120,
            "byteOffset" : 1536,
            "target" : 34963
        }
    ],
    "buffers" : [
        {
            "byteLength" : 1656,
            "uri" : "data:application/octet-stream;base64,"
        }
    ]
}
